<?xml version="1.0" standalone="no"?>
<!DOCTYPE svg PUBLIC "-//W3C//DTD SVG 20010904//EN"
 "http://www.w3.org/TR/2001/REC-SVG-20010904/DTD/svg10.dtd">
<svg version="1.0" xmlns="http://www.w3.org/2000/svg"
 width="750.000000pt" height="500.000000pt" viewBox="0 0 750.000000 500.000000"
 preserveAspectRatio="xMidYMid meet">

<g transform="translate(0.000000,500.000000) scale(0.100000,-0.100000)"
fill="#000000" stroke="none">
<path d="M4212 4449 c-84 -14 -196 -55 -340 -125 -73 -35 -137 -64 -142 -64
-6 0 -43 16 -83 36 -121 61 -220 101 -313 125 -83 22 -108 24 -384 24 l-295 0
0 -415 0 -415 295 -5 c197 -4 311 -10 342 -19 l48 -13 2 -687 3 -686 58 -3 57
-3 0 655 c0 480 3 657 11 662 7 4 65 -19 130 -52 l119 -58 2 -601 3 -600 243
-3 242 -2 0 524 c0 424 3 526 13 535 9 7 111 12 308 13 l294 3 3 56 3 57 -363
4 c-200 2 -366 3 -370 1 -5 -2 -8 -245 -8 -539 l0 -535 -127 3 -128 3 -3 577
-2 577 -108 58 c-137 74 -289 138 -389 164 -64 17 -121 22 -323 27 l-245 7 0
115 0 115 240 0 c299 0 313 -4 625 -155 361 -175 383 -180 836 -187 250 -4
346 -2 362 6 l22 12 -2 407 -3 407 -290 1 c-159 1 -314 -2 -343 -7z m506 -107
c9 -6 12 -38 10 -123 l-3 -114 -285 0 c-294 0 -342 5 -477 46 -90 28 -86 45
25 97 111 51 213 82 305 92 99 10 409 12 425 2z m-1373 -46 c50 -15 180 -72
290 -126 209 -104 336 -152 445 -169 36 -6 191 -11 345 -11 154 0 286 -4 293
-8 9 -6 12 -38 10 -123 l-3 -114 -240 -3 c-388 -5 -475 13 -762 156 -188 94
-314 146 -409 167 -46 11 -147 18 -304 22 -155 4 -237 9 -242 17 -13 19 -9
201 5 215 9 10 65 12 247 8 221 -3 240 -5 325 -31z"/>
<path d="M1135 1996 c-42 -19 -80 -56 -106 -107 -20 -38 -23 -59 -24 -149 0
-99 2 -109 32 -170 44 -88 82 -114 178 -118 123 -7 213 54 179 120 -18 35 -29
35 -78 2 -28 -19 -51 -26 -82 -26 -82 2 -123 54 -131 166 -7 88 7 136 50 172
38 32 88 29 148 -10 21 -14 45 -26 52 -26 20 0 47 33 47 56 0 27 -59 82 -101
94 -47 14 -128 12 -164 -4z"/>
<path d="M1745 2001 c-3 -2 -5 -120 -5 -261 0 -227 2 -259 17 -271 12 -11 54
-14 167 -14 l151 0 2 25 c2 14 -4 34 -12 44 -13 18 -27 20 -125 18 l-110 -1 0
68 0 69 90 0 c49 0 94 3 100 7 5 3 10 21 10 39 0 31 -3 34 -37 40 -21 3 -66 6
-100 6 l-63 0 0 54 c0 89 -4 86 130 86 98 0 119 3 124 16 10 26 7 62 -6 71
-14 8 -325 12 -333 4z"/>
<path d="M2447 1995 c-16 -15 -17 -42 -15 -278 l3 -262 34 -3 c18 -2 39 2 45
8 7 7 11 50 11 108 l0 97 52 3 53 3 52 -108 53 -108 43 -3 c55 -4 55 4 -4 137
l-47 103 33 31 c86 81 76 208 -22 258 -59 30 -265 40 -291 14z m257 -106 c55
-43 14 -107 -77 -120 -92 -12 -97 -8 -97 72 l0 69 74 0 c59 0 78 -4 100 -21z"/>
<path d="M3132 1998 c-15 -15 -16 -60 0 -76 7 -7 36 -12 65 -12 l53 0 0 -214
c0 -118 3 -221 6 -230 4 -9 18 -16 34 -16 62 0 60 -9 60 236 l0 223 63 3 62 3
3 34 c2 18 0 37 -5 42 -4 4 -80 11 -168 14 -121 4 -163 3 -173 -7z"/>
<path d="M3816 1995 c-14 -14 -16 -49 -16 -281 l0 -265 48 3 47 3 2 260 c2
143 -1 265 -5 272 -13 21 -58 26 -76 8z"/>
<path d="M4274 2001 c-2 -2 -4 -125 -4 -272 0 -234 2 -268 16 -273 26 -10 62
-7 70 6 5 7 8 58 9 113 l0 100 89 3 c50 2 96 8 103 14 8 6 13 25 11 42 l-3 31
-97 3 -98 3 0 69 0 70 103 0 c114 0 147 12 147 55 0 41 -29 47 -192 43 -82 -1
-152 -5 -154 -7z"/>
<path d="M4956 1995 c-14 -14 -16 -49 -16 -281 l0 -265 48 3 47 3 2 260 c2
143 -1 265 -5 272 -13 21 -58 26 -76 8z"/>
<path d="M5405 2001 c-3 -2 -5 -120 -5 -261 0 -227 2 -259 17 -271 12 -11 54
-14 167 -14 l151 0 2 25 c2 14 -4 34 -12 44 -13 18 -27 20 -125 18 l-110 -1 0
68 0 69 90 0 c49 0 94 3 100 7 5 3 10 21 10 39 0 31 -3 34 -37 40 -21 3 -66 6
-100 6 l-63 0 0 54 c0 89 -4 86 130 86 98 0 119 3 124 16 10 26 7 62 -6 71
-14 8 -325 12 -333 4z"/>
<path d="M6125 2003 c-11 -3 -23 -10 -27 -17 -4 -6 -8 -122 -8 -258 0 -290 -5
-278 113 -278 103 0 154 16 203 65 54 55 78 125 77 226 -1 126 -41 207 -123
249 -26 14 -200 23 -235 13z m208 -108 c37 -24 61 -102 55 -180 -10 -116 -54
-165 -151 -165 l-45 0 -5 58 c-5 47 -3 298 2 311 3 10 122 -9 144 -24z"/>
<path d="M2335 1080 c-10 -31 12 -50 56 -50 l39 0 0 -160 0 -160 29 0 c19 0
30 6 33 18 2 9 3 81 1 160 l-3 142 45 0 c39 0 45 3 51 24 3 14 3 30 -1 35 -4
7 -52 11 -125 11 -111 0 -119 -1 -125 -20z"/>
<path d="M2804 1029 c-6 -11 -7 -297 0 -308 5 -7 46 -11 112 -11 103 0 104 0
104 24 0 37 -22 48 -92 45 -67 -2 -68 -2 -68 36 0 24 2 25 65 25 l65 0 0 30 0
30 -65 0 -65 0 0 35 0 35 79 0 c63 0 80 3 85 16 15 40 10 43 -105 46 -61 2
-113 0 -115 -3z"/>
<path d="M3296 1025 c-41 -21 -55 -44 -56 -86 0 -46 21 -65 108 -99 75 -29 91
-53 46 -70 -23 -9 -36 -7 -78 15 l-50 26 -20 -21 -21 -21 28 -24 c62 -54 159
-53 214 1 21 21 24 32 20 62 -8 48 -29 67 -107 94 -51 18 -66 28 -68 45 -5 33
38 40 87 15 32 -17 42 -18 56 -8 26 18 14 49 -25 68 -43 22 -95 23 -134 3z"/>
<path d="M3697 1034 c-4 -4 -7 -20 -7 -36 0 -25 3 -28 34 -28 18 0 38 -6 44
-13 6 -7 13 -64 14 -128 l3 -114 27 -3 c35 -4 39 12 36 148 l-3 105 45 5 c33
4 46 10 48 24 2 10 0 22 -5 27 -10 10 -226 22 -236 13z"/>
<path d="M4144 1029 c-6 -11 -7 -297 0 -308 5 -7 46 -11 112 -11 103 0 104 0
104 24 0 37 -22 48 -92 45 -67 -2 -68 -2 -68 36 0 24 2 25 65 25 l65 0 0 30 0
30 -65 0 -65 0 0 35 0 35 79 0 c63 0 80 3 85 16 15 40 10 43 -105 46 -61 2
-113 0 -115 -3z"/>
<path d="M5126 1025 c-41 -21 -55 -44 -56 -86 0 -46 21 -65 108 -99 75 -29 91
-53 46 -70 -23 -9 -36 -7 -78 15 l-50 26 -20 -21 -21 -21 28 -24 c62 -54 159
-53 214 1 21 21 24 32 20 62 -8 48 -29 67 -107 94 -51 18 -66 28 -68 45 -5 33
38 40 87 15 32 -17 42 -18 56 -8 26 18 14 49 -25 68 -43 22 -95 23 -134 3z"/>
<path d="M4599 948 c-2 -68 -1 -200 1 -230 0 -5 14 -8 30 -8 l30 0 0 65 0 65
34 0 c33 0 37 -4 68 -62 27 -51 38 -64 61 -66 34 -4 35 10 2 84 l-25 57 25 27
c25 26 34 82 17 106 -23 34 -58 44 -149 44 l-93 0 -1 -82z m177 10 c12 -12 12
-17 -2 -36 -12 -18 -25 -22 -65 -22 -49 0 -49 0 -49 33 0 19 3 37 8 41 11 12
92 0 108 -16z"/>
</g>
</svg>
