<?xml version="1.0" standalone="no"?>
<!DOCTYPE svg PUBLIC "-//W3C//DTD SVG 20010904//EN"
 "http://www.w3.org/TR/2001/REC-SVG-20010904/DTD/svg10.dtd">
<svg version="1.0" xmlns="http://www.w3.org/2000/svg"
 width="750.000000pt" height="500.000000pt" viewBox="0 0 750.000000 500.000000"
 preserveAspectRatio="xMidYMid meet">

<g transform="translate(0.000000,500.000000) scale(0.100000,-0.100000)"
fill="#000000" stroke="none">
<path d="M3954 3446 c-27 -7 -87 -30 -132 -51 l-82 -38 -77 36 c-106 49 -156
58 -313 55 l-135 -3 0 -200 0 -200 165 -6 c91 -3 166 -6 168 -7 1 -1 2 -153 2
-337 l0 -335 30 0 30 0 0 320 c0 176 2 320 5 320 2 0 29 -12 60 -27 l55 -27 2
-291 3 -290 117 -3 118 -3 2 258 3 258 150 5 150 5 0 25 0 25 -177 3 -178 2 0
-260 0 -260 -65 0 -65 0 0 280 0 280 -90 45 c-121 61 -181 75 -317 75 l-113 0
0 60 0 60 103 0 c133 -1 167 -9 317 -80 168 -79 217 -90 423 -90 l167 0 0 205
0 205 -137 -1 c-76 0 -161 -6 -189 -13z m271 -106 l0 -55 -150 0 c-142 0 -237
14 -251 36 -6 10 46 37 116 60 42 14 82 18 170 16 l115 -2 0 -55z m-652 29
c34 -11 86 -34 116 -51 128 -71 171 -82 361 -88 l175 -5 3 -57 3 -58 -148 0
c-178 1 -208 7 -343 72 -163 78 -193 86 -327 89 -65 1 -124 4 -130 7 -8 3 -13
24 -13 58 l0 54 120 0 c95 0 134 -4 183 -21z"/>
<path d="M2503 2176 c-112 -51 -77 -276 44 -276 49 0 88 20 88 45 0 21 -8 22
-72 9 -47 -9 -73 21 -73 87 0 28 5 59 10 70 12 22 59 26 89 7 22 -14 51 -4 51
16 0 38 -87 64 -137 42z"/>
<path d="M2819 2113 c-1 -38 -3 -95 -5 -128 -1 -33 2 -65 8 -72 13 -16 154
-18 163 -3 14 23 -17 40 -71 40 -53 0 -54 0 -54 30 0 17 6 30 13 31 6 1 19 2
27 3 8 2 25 3 38 4 15 1 22 8 22 22 0 17 -7 20 -50 20 l-50 0 0 35 0 34 63 3
c56 3 62 5 65 26 3 21 1 22 -82 22 l-86 0 -1 -67z"/>
<path d="M3169 2138 c-1 -59 -1 -210 0 -225 1 -7 10 -13 21 -13 18 0 20 7 20
55 0 54 0 55 30 55 27 0 33 -6 55 -55 20 -46 28 -55 49 -55 15 0 26 2 26 5 0
2 -12 29 -27 60 l-27 55 22 23 c30 32 29 86 -1 115 -19 18 -35 22 -95 22 l-72
0 -1 -42z m118 -4 c53 -14 26 -74 -34 -74 -32 0 -33 1 -33 40 0 35 3 40 23 40
12 0 32 -3 44 -6z"/>
<path d="M3520 2161 c0 -20 18 -31 51 -31 18 0 19 -8 19 -116 0 -114 0 -115
23 -112 21 3 22 7 25 116 3 110 3 112 26 112 26 0 51 24 41 40 -3 6 -44 10
-96 10 -81 0 -89 -2 -89 -19z"/>
<path d="M3869 2098 c-1 -46 -2 -108 -3 -138 -1 -52 0 -55 24 -55 l25 0 0 135
c0 132 0 135 -22 138 -22 3 -23 1 -24 -80z"/>
<path d="M4099 2118 c0 -35 -2 -88 -5 -118 -5 -73 2 -100 26 -100 16 0 19 8
22 58 l3 57 50 5 c37 4 51 9 53 23 3 14 -4 17 -47 17 l-51 0 0 35 c0 20 5 36
13 37 11 1 48 4 90 7 10 1 17 9 17 21 0 18 -7 20 -85 20 l-85 0 -1 -62z"/>
<path d="M4449 2098 c-1 -46 -2 -108 -3 -138 -1 -52 0 -55 24 -55 l25 0 0 135
c0 132 0 135 -22 138 -22 3 -23 1 -24 -80z"/>
<path d="M4679 2113 c-1 -38 -3 -95 -5 -128 -1 -33 2 -65 8 -72 13 -16 154
-18 163 -3 14 23 -17 40 -71 40 -53 0 -54 0 -54 30 0 17 6 30 13 31 6 1 19 2
27 3 8 2 25 3 38 4 15 1 22 8 22 22 0 17 -7 20 -50 20 l-50 0 0 35 0 34 63 3
c56 3 62 5 65 26 3 21 1 22 -82 22 l-86 0 -1 -67z"/>
<path d="M5026 2133 c-6 -51 1 -210 11 -226 10 -16 120 -3 142 17 56 51 64
168 15 226 -24 28 -30 30 -94 30 l-67 0 -7 -47z m125 -12 c20 -16 24 -28 24
-76 0 -48 -4 -60 -24 -76 -14 -11 -36 -19 -50 -17 -25 3 -26 5 -29 82 -2 44
-1 85 2 93 8 19 50 16 77 -6z"/>
<path d="M3290 1690 c0 -5 7 -10 15 -10 11 0 15 -12 15 -50 0 -27 5 -50 10
-50 6 0 10 23 10 50 0 38 4 50 15 50 8 0 15 5 15 10 0 6 -18 10 -40 10 -22 0
-40 -4 -40 -10z"/>
<path d="M3430 1630 l0 -50 35 0 c19 0 35 5 35 10 0 6 -11 10 -25 10 -14 0
-25 5 -25 10 0 6 9 10 20 10 11 0 20 5 20 10 0 6 -9 10 -20 10 -11 0 -20 5
-20 10 0 6 11 10 25 10 14 0 25 5 25 10 0 6 -16 10 -35 10 l-35 0 0 -50z"/>
<path d="M3577 1674 c-10 -10 -9 -44 1 -44 5 0 17 -7 28 -16 18 -15 18 -15 -9
-9 -21 4 -28 2 -25 -7 3 -7 18 -13 34 -13 22 0 30 5 32 22 3 17 -3 24 -22 29
-29 7 -36 27 -8 22 11 -2 20 2 21 7 2 12 -41 19 -52 9z"/>
<path d="M3700 1670 c0 -5 7 -10 15 -10 11 0 15 -11 15 -40 0 -22 5 -40 10
-40 6 0 10 18 10 40 0 30 4 40 16 40 8 0 12 5 9 10 -3 6 -22 10 -41 10 -19 0
-34 -4 -34 -10z"/>
<path d="M3840 1630 l0 -50 35 0 c19 0 35 5 35 10 0 6 -11 10 -25 10 -14 0
-25 5 -25 10 0 6 9 10 20 10 11 0 20 5 20 10 0 6 -9 10 -20 10 -11 0 -20 5
-20 10 0 6 11 10 25 10 14 0 25 5 25 10 0 6 -16 10 -35 10 l-35 0 0 -50z"/>
<path d="M3980 1630 c0 -27 5 -50 10 -50 6 0 10 9 10 20 0 11 4 20 10 20 5 0
14 -9 20 -20 15 -29 32 -26 20 4 -5 15 -5 27 2 34 17 17 -9 42 -43 42 -28 0
-29 -2 -29 -50z m55 20 c-3 -5 -13 -10 -21 -10 -8 0 -14 5 -14 10 0 6 9 10 21
10 11 0 17 -4 14 -10z"/>
<path d="M4130 1665 c-10 -12 -10 -18 0 -30 7 -8 18 -15 26 -15 7 0 16 -5 20
-12 5 -8 -2 -9 -25 -5 -24 5 -31 3 -28 -6 2 -6 19 -12 38 -12 27 0 34 4 34 20
0 11 -10 24 -23 31 -35 18 -40 27 -9 22 18 -4 26 -1 24 6 -6 17 -42 19 -57 1z"/>
</g>
</svg>
